<?xml version="1.0" encoding="UTF-8"?>
<svg width="426px" height="267px" viewBox="0 0 426 267" version="1.1" xmlns="http://www.w3.org/2000/svg" xmlns:xlink="http://www.w3.org/1999/xlink">
    <!-- Generator: Sketch 49.3 (51167) - http://www.bohemiancoding.com/sketch -->
    <title>confidence-interval-score</title>
    <desc>Created with Sketch.</desc>
    <defs></defs>
    <g id="Page-1" stroke="none" stroke-width="1" fill="none" fill-rule="evenodd">
        <path d="M30.3514905,244.121379 C20.7976287,244.489724 11.2391599,244.601241 1.68069106,244.660379 L54.6340786,244.660379 L54.6340786,242.046483 C46.571748,243.322172 38.4495257,243.808793 30.3514905,244.121379 Z" id="path38" fill="#BDC9E1" fill-rule="nonzero"></path>
        <path d="M423.880759,244.653621 C414.498509,244.594483 405.10935,244.498172 395.731707,244.084207 C387.920461,243.739517 380.127642,243.132931 372.355556,241.968759 L372.355556,244.662069 L425.308943,244.662069 C424.832114,244.65869 424.357588,244.65531 423.880759,244.653621 Z" id="path48" fill="#BDC9E1" fill-rule="nonzero"></path>
        <path d="M1,245 L424,245" id="line87" stroke="#000000" stroke-width="2" stroke-linecap="round" stroke-linejoin="round"></path>
        <path d="M1,244.996611 C10.5442934,244.937307 20.0885867,244.823782 29.6282799,244.456095 C38.7505037,244.101964 47.907229,243.530949 56.9719501,241.846708 C66.5691459,240.062497 75.9949838,237.102367 85.0286535,231.715846 C94.0301216,226.34627 101.988491,218.204642 109.340783,208.687156 C116.488365,199.435692 122.742355,188.066219 128.244211,176.500194 C133.904774,164.598677 139.153618,152.25492 144.022944,139.551948 C149.042927,126.457568 153.84785,113.183581 158.613672,99.8689278 C163.284039,86.8186024 167.962456,73.7835267 172.820282,60.8958645 C177.567702,48.2962515 182.699241,35.7847477 188.70597,24.505078 C191.818014,18.661067 195.246323,13.4490701 199.085202,8.75047849 C202.819425,4.17896748 207.328785,1.60177391 212.047454,1.05617474 C216.832826,0.503797947 221.375537,4.11288559 225.236267,8.02188333 C229.18555,12.0206847 232.468953,17.6427282 235.521194,23.1224416 C241.809687,34.4038057 246.874522,47.262663 251.823202,59.9758013 C256.618924,72.2975315 261.05123,84.9581432 265.552539,97.5374233 C270.29306,110.787689 275.03128,124.041343 280.025962,137.07303 C284.872287,149.718392 289.949773,162.18923 295.587335,174.039915 C301.368653,186.193899 307.696247,197.620982 314.968035,207.73151 C322.112167,217.665821 330.277546,225.414346 339.124907,231.195663 C347.639903,236.761791 356.982937,239.794781 366.139662,241.49766 C375.549399,243.246288 384.995938,244.0003 394.466628,244.420513 C403.831513,244.835642 413.205599,244.932224 422.573934,244.991528 C423.050056,244.993222 423.523878,244.996611 424,245" id="path89" stroke="#000000" stroke-width="2" stroke-linecap="round" stroke-linejoin="round"></path>
        <path d="M109.443786,207.975294 C118.373693,194.275122 124.671679,183.582909 128.337745,175.898655 C133.995473,164.037931 139.241687,151.736483 144.108574,139.077051 C149.126043,126.027553 153.928559,112.799063 158.691993,99.5300474 C163.360021,86.524453 168.036095,73.534056 172.891487,60.6905671 C177.636529,48.1341402 182.765497,35.6655204 188.769217,24.4245126 C191.879703,18.6005325 195.306295,13.4064 199.14325,8.72391317 C202.875603,4.16807134 207.382704,1.59971128 212.099009,1.0559822 C216.881985,0.505498716 221.42242,4.10221595 225.281215,7.99781532 C229.228521,11.9829105 232.510278,17.5856841 235.560991,23.0466153 C241.846333,34.2893117 246.908631,47.1040944 251.854832,59.7736575 C256.648153,72.0531541 261.078239,84.6703706 265.577293,97.2065343 C270.315438,110.411384 275.051285,123.61961 280.043465,136.60663 C284.887363,149.208649 289.962305,161.636742 295.597043,173.446808 C299.449325,181.521692 305.906322,192.71373 314.968035,207.022923 L314.968035,245 L107,245 L109.443786,207.975294 Z" id="path89" stroke="#000000" stroke-width="2" fill="#D8D8D8" stroke-linecap="round" stroke-linejoin="round"></path>
        <text id="95%" font-family="Helvetica" font-size="24" font-weight="normal" fill="#000000">
            <tspan x="195.482422" y="146">95%</tspan>
        </text>
        <text id="1.96" font-family="Helvetica" font-size="14" font-weight="normal" fill="#000000">
            <tspan x="301.375977" y="264">1.96</tspan>
        </text>
        <text id="-1.96" font-family="Helvetica" font-size="14" font-weight="normal" fill="#000000">
            <tspan x="89.0449219" y="264">-1.96</tspan>
        </text>
    </g>
</svg>