<?xml version="1.0" encoding="UTF-8"?>
<svg width="331px" height="98px" viewBox="0 0 331 98" version="1.1" xmlns="http://www.w3.org/2000/svg" xmlns:xlink="http://www.w3.org/1999/xlink">
    <!-- Generator: Sketch 49.3 (51167) - http://www.bohemiancoding.com/sketch -->
    <title>box-whisker-plot</title>
    <desc>Created with Sketch.</desc>
    <defs></defs>
    <g id="Page-1" stroke="none" stroke-width="1" fill="none" fill-rule="evenodd">
        <g id="Axis" transform="translate(3.000000, 85.000000)" stroke="#000000" stroke-linecap="square">
            <path d="M0.5,5.5 L326.524539,5.5" id="Line" stroke-width="2"></path>
            <path d="M17.5,0.5 L17.5,11.6803399" id="Line-2"></path>
            <path d="M37.5,0.5 L37.5,11.6803399" id="Line-2"></path>
            <path d="M57.5,0.5 L57.5,11.6803399" id="Line-2"></path>
            <path d="M77.5,0.5 L77.5,11.6803399" id="Line-2"></path>
            <path d="M97.5,0.5 L97.5,11.6803399" id="Line-2"></path>
            <path d="M117.5,0.5 L117.5,11.6803399" id="Line-2"></path>
            <path d="M137.5,0.5 L137.5,11.6803399" id="Line-2"></path>
            <path d="M157.5,0.5 L157.5,11.6803399" id="Line-2"></path>
            <path d="M177.5,0.5 L177.5,11.6803399" id="Line-2"></path>
            <path d="M197.5,0.5 L197.5,11.6803399" id="Line-2"></path>
            <path d="M217.5,0.5 L217.5,11.6803399" id="Line-2"></path>
            <path d="M237.5,0.5 L237.5,11.6803399" id="Line-2"></path>
            <path d="M257.5,0.5 L257.5,11.6803399" id="Line-2"></path>
            <path d="M277.5,0.5 L277.5,11.6803399" id="Line-2"></path>
            <path d="M297.5,0.5 L297.5,11.6803399" id="Line-2"></path>
            <path d="M317.5,0.5 L317.5,11.6803399" id="Line-2"></path>
        </g>
        <g id="Box" transform="translate(48.000000, 24.000000)" stroke="#000000" stroke-width="2">
            <rect id="Rectangle" x="1" y="1" width="174" height="40"></rect>
            <path d="M70.5,1.5 L70.5,40.5128184" id="Line-3" stroke-linecap="square"></path>
        </g>
        <g id="Whiskers" transform="translate(8.000000, 48.000000)">
            <circle id="Oval" fill="#000000" cx="3" cy="3" r="3"></circle>
            <circle id="Oval" fill="#000000" cx="303" cy="3" r="3"></circle>
            <path d="M3.5,3.5 L40.6214224,3.5" id="Line-4" stroke="#000000" stroke-width="2" stroke-linecap="square"></path>
            <path d="M215.5,3.5 L302.001445,3.5" id="Line-4" stroke="#000000" stroke-width="2" stroke-linecap="square"></path>
        </g>
        <text id="min" font-family="TimesNewRomanPSMT, Times New Roman" font-size="14" font-weight="normal" fill="#29264C">
            <tspan x="0" y="37">min</tspan>
        </text>
        <text id="max" font-family="TimesNewRomanPSMT, Times New Roman" font-size="14" font-weight="normal" fill="#29264C">
            <tspan x="300" y="37">max</tspan>
        </text>
        <text id="Q₁" font-family="TimesNewRomanPSMT, Times New Roman" font-size="14" font-weight="normal" fill="#29264C">
            <tspan x="40" y="12">Q</tspan>
            <tspan x="50.1103516" y="12" font-family="LucidaGrande, Lucida Grande">₁</tspan>
        </text>
        <text id="Q₃" font-family="TimesNewRomanPSMT, Times New Roman" font-size="14" font-weight="normal" fill="#29264C">
            <tspan x="216" y="12">Q</tspan>
            <tspan x="226.110352" y="12" font-family="LucidaGrande, Lucida Grande">₃</tspan>
        </text>
        <text id="median" font-family="TimesNewRomanPSMT, Times New Roman" font-size="14" font-weight="normal" fill="#29264C">
            <tspan x="100" y="16">median</tspan>
        </text>
    </g>
</svg>