<?xml version="1.0" encoding="UTF-8"?>
<svg width="337px" height="257px" viewBox="0 0 337 257" version="1.1" xmlns="http://www.w3.org/2000/svg" xmlns:xlink="http://www.w3.org/1999/xlink">
    <!-- Generator: Sketch 49.3 (51167) - http://www.bohemiancoding.com/sketch -->
    <title>positive-correlation</title>
    <desc>Created with Sketch.</desc>
    <defs></defs>
    <g id="Page-1" stroke="none" stroke-width="1" fill="none" fill-rule="evenodd">
        <g id="Axis" transform="translate(12.000000, 3.000000)" stroke="#000000" stroke-linecap="square" stroke-width="2">
            <path d="M18.5,243.559493 L18.5,0.995362007" id="Line"></path>
            <path id="Line-decoration-1" d="M21.5,11.795362 L18.5,0.995362007 L15.5,11.795362"></path>
            <path d="M0.5,226.5 L320.576553,226.5" id="Line-2"></path>
            <path id="Line-2-decoration-1" d="M309.776553,229.5 L320.576553,226.5 L309.776553,223.5"></path>
        </g>
        <g id="Data-points" transform="translate(65.000000, 36.000000)" fill="#000000">
            <circle id="Oval" cx="4" cy="153" r="4"></circle>
            <circle id="Oval" cx="25" cy="160" r="4"></circle>
            <circle id="Oval" cx="33" cy="133" r="4"></circle>
            <circle id="Oval" cx="70" cy="133" r="4"></circle>
            <circle id="Oval" cx="211" cy="32" r="4"></circle>
            <circle id="Oval" cx="149" cy="52" r="4"></circle>
            <circle id="Oval" cx="211" cy="94" r="4"></circle>
            <circle id="Oval" cx="131" cy="125" r="4"></circle>
            <circle id="Oval" cx="70" cy="60" r="4"></circle>
            <circle id="Oval" cx="203" cy="4" r="4"></circle>
        </g>
        <path d="M72.5,201.5 L303.5,48.5" id="Approx-line" stroke="#FF0000" stroke-width="2" stroke-linecap="square" stroke-dasharray="5"></path>
        <g id="Labels" transform="translate(0.000000, 8.000000)" fill="#000000" font-family="Helvetica" font-size="17" font-weight="normal">
            <text id="A">
                <tspan x="190.330566" y="245">A</tspan>
            </text>
            <text id="B">
                <tspan x="0.330566406" y="113">B</tspan>
            </text>
            <text id="[Positive-correlatio">
                <tspan x="82.4667969" y="16">[Positive correlation]</tspan>
            </text>
        </g>
    </g>
</svg>