<?xml version="1.0" encoding="UTF-8"?>
<svg width="557px" height="314px" viewBox="0 0 557 314" version="1.1" xmlns="http://www.w3.org/2000/svg" xmlns:xlink="http://www.w3.org/1999/xlink">
    <!-- Generator: Sketch 49.3 (51167) - http://www.bohemiancoding.com/sketch -->
    <title>normal-distribution-empirical</title>
    <desc>Created with Sketch.</desc>
    <defs></defs>
    <g id="Page-1" stroke="none" stroke-width="1" fill="none" fill-rule="evenodd">
        <g id="colours" transform="translate(10.000000, 2.000000)" fill-rule="nonzero">
            <path d="M203.663919,98.9397241 C197.532146,112.218724 191.350065,125.453793 184.891285,138.511448 C178.626341,151.178793 171.873106,163.486241 164.590146,175.356069 C157.511382,186.889655 149.464911,198.227241 140.268732,207.452759 C139.169333,208.556103 138.056618,209.635793 136.935024,210.700276 L136.935024,243.662069 L204.964553,243.662069 L204.964553,96.1264483 C204.531008,97.0642069 204.095984,98.0019655 203.663919,98.9397241 Z" id="path34" fill="#7268A6"></path>
            <path d="M108.988407,230.416862 C97.365561,235.789966 85.2366667,238.741793 72.8902602,240.51931 C71.5644715,240.710241 70.2357236,240.882586 68.9054959,241.048172 L68.9054959,243.662069 L136.936504,243.662069 L136.936504,210.700276 C128.407659,218.790345 119.223317,225.684138 108.988407,230.416862 Z" id="path36" fill="#86A3C3"></path>
            <path d="M37.7080325,243.121379 C25.4341301,243.489724 13.1543089,243.601241 0.874487805,243.660379 L68.9040163,243.660379 L68.9040163,241.046483 C58.5462927,242.322172 48.111626,242.808793 37.7080325,243.121379 Z" id="path38" fill="#BDC9E1"></path>
            <path d="M272.412569,0.404103448 C266.341463,0.948172414 260.541138,3.51813793 255.735154,8.07682759 C250.79452,12.7622414 246.385089,17.9596207 242.381089,23.7872414 C234.651268,35.0352759 228.050439,47.5116897 221.942341,60.0759655 C216.143496,72.0015517 210.542927,84.0538621 204.966033,96.1264483 L204.966033,243.662069 L272.995561,243.662069 L272.995561,0.37537931 C272.800244,0.383827586 272.606407,0.385517241 272.412569,0.404103448 Z" id="path40" fill="#6B3074"></path>
            <path d="M323.587122,59.1584828 C317.220081,46.481 310.703593,33.6565172 302.612732,22.4084828 C298.685675,16.9441379 294.459724,11.3378621 289.38,7.35027586 C284.571057,3.57558621 278.937935,0.0932068966 272.994081,0.377068966 L272.994081,243.662069 L341.02361,243.662069 L341.02361,96.1213793 C335.312065,83.7395862 329.678943,71.2851379 323.587122,59.1584828 Z" id="path42" fill="#6B3074"></path>
            <path d="M470.668276,240.169552 C458.887106,238.471448 446.866228,235.446966 435.910715,229.896448 C426.232163,224.994759 417.197268,218.658552 409.054618,210.784759 L409.054618,243.662069 L477.084146,243.662069 L477.084146,240.968759 C474.944537,240.720379 472.804927,240.478759 470.668276,240.169552 Z" id="path44" fill="#86A3C3"></path>
            <path d="M404.830146,206.499793 C395.475642,196.417621 387.334472,185.022586 379.894667,172.90269 C372.641301,161.085241 366.108537,148.649379 359.873187,136.039483 C353.446959,123.046034 347.350699,109.827862 341.25148,96.6147586 C341.174537,96.4508621 341.099073,96.2852759 341.02361,96.1213793 L341.02361,243.662069 L409.054618,243.662069 L409.054618,210.786448 C407.619333,209.399241 406.204764,207.98331 404.830146,206.499793 Z" id="path46" fill="#7268A6"></path>
            <path d="M543.277398,243.653621 C531.223967,243.594483 519.161659,243.498172 507.114146,243.084207 C497.078992,242.739517 487.067512,242.132931 477.082667,240.968759 L477.082667,243.662069 L545.112195,243.662069 C544.49961,243.65869 543.889984,243.65531 543.277398,243.653621 Z" id="path48" fill="#BDC9E1"></path>
        </g>
        <g id="white_lines" transform="translate(78.000000, 1.000000)" stroke="#FFFFFF" stroke-linejoin="round">
            <path d="M0.840302158,232.327586 L0.840302158,244.75331" id="line51"></path>
            <path d="M68.9788777,194.310345 L68.9788777,244.75331" id="line53"></path>
            <path d="M137.115971,82.7931034 L137.115971,244.75331" id="line55"></path>
            <path d="M205.253065,0.361586207 L205.253065,244.75331" id="line57"></path>
            <path d="M273.390158,82.7931034 L273.390158,244.75331" id="line59"></path>
            <path d="M341.527252,194.310345 L341.527252,244.75331" id="line61"></path>
            <path d="M409.664345,232.327586 L409.664345,244.75331" id="line63"></path>
        </g>
        <path d="M10,246 L0,246" id="line67" stroke="#000000" stroke-width="0.75" stroke-linejoin="round"></path>
        <path d="M10,246 L555,246" id="line87" stroke="#000000" stroke-width="0.75" stroke-linecap="round" stroke-linejoin="round"></path>
        <path d="M10,246.996611 C22.297021,246.937307 34.594042,246.823782 46.885136,246.456095 C58.6383558,246.101964 70.4360279,245.530949 82.1151603,243.846708 C94.4803417,242.062497 106.624743,239.102367 118.263868,233.715846 C129.861504,228.34627 140.115196,220.204642 149.588006,210.687156 C158.797066,201.435692 166.854808,190.066219 173.943487,178.500194 C181.236647,166.598677 187.999342,154.25492 194.27306,141.551948 C200.740887,128.457568 206.931628,115.183581 213.071988,101.868928 C219.089364,88.8186024 225.117112,75.7835267 231.376013,62.8958645 C237.492666,50.2962515 244.104223,37.7847477 251.843389,26.505078 C255.852997,20.661067 260.270086,15.4490701 265.216158,10.7504785 C270.027392,6.17896748 275.837323,3.60177391 281.916932,3.05617474 C288.082483,2.50379795 293.935385,6.11288559 298.909611,10.0218833 C303.997931,14.0206847 308.22832,19.6427282 312.160877,25.1224416 C320.263071,36.4038057 326.788687,49.262663 333.164645,61.9758013 C339.343532,74.2975315 345.054186,86.9581432 350.853745,99.5374233 C356.961507,112.787689 363.066306,126.041343 369.501535,139.07303 C375.745618,151.718392 382.287532,164.18923 389.551058,176.039915 C396.999802,188.193899 405.152375,199.620982 414.521464,209.73151 C423.726078,219.665821 434.246484,227.414346 445.645566,233.195663 C456.616423,238.761791 468.654138,241.794781 480.451811,243.49766 C492.575467,245.246288 504.74654,246.0003 516.948729,246.420513 C529.014597,246.835642 541.09232,246.932224 553.162633,246.991528 C553.776077,246.993222 554.386557,246.996611 555,247" id="path89" stroke="#000000" stroke-width="0.75" stroke-linecap="round" stroke-linejoin="round"></path>
        <path d="M79,256 L79,246" id="line91" stroke="#000000" stroke-width="0.75" stroke-linejoin="round"></path>
        <path d="M147,256 L147,246" id="line93" stroke="#000000" stroke-width="0.75" stroke-linejoin="round"></path>
        <path d="M215,256 L215,246" id="line95" stroke="#000000" stroke-width="0.75" stroke-linejoin="round"></path>
        <path d="M283,256 L283,246" id="line97" stroke="#000000" stroke-width="0.75" stroke-linejoin="round"></path>
        <path d="M351,256 L351,246" id="line99" stroke="#000000" stroke-width="0.75" stroke-linejoin="round"></path>
        <path d="M419,256 L419,246" id="line101" stroke="#000000" stroke-width="0.75" stroke-linejoin="round"></path>
        <path d="M487,256 L487,246" id="line103" stroke="#000000" stroke-width="0.75" stroke-linejoin="round"></path>
        <text id="−2" fill="#000000" font-family="Helvetica" font-size="12" font-weight="normal">
            <tspan x="139" y="273">−2</tspan>
        </text>
        <text id="−1" fill="#000000" font-family="Helvetica" font-size="12" font-weight="normal">
            <tspan x="207" y="273">−1</tspan>
        </text>
        <text id="1" fill="#000000" font-family="Helvetica" font-size="12" font-weight="normal">
            <tspan x="348" y="273">1</tspan>
        </text>
        <text id="−3" fill="#000000" font-family="Helvetica" font-size="12" font-weight="normal">
            <tspan x="68" y="273">−3</tspan>
        </text>
        <text id="3" fill="#000000" font-family="Helvetica" font-size="12" font-weight="normal">
            <tspan x="487" y="273">3</tspan>
        </text>
        <text id="text115" fill="#000000" font-family="Helvetica" font-size="12" font-weight="normal">
            <tspan x="280" y="273">0</tspan>
        </text>
        <text id="68%" fill="#000000" font-family="Helvetica" font-size="12" font-weight="normal">
            <tspan x="272.991211" y="305">68%</tspan>
        </text>
        <text id="2" fill="#000000" font-family="Helvetica" font-size="12" font-weight="normal">
            <tspan x="416" y="273">2</tspan>
        </text>
        <path d="M216.5,290.5 L351.503704,290.5" id="Line" stroke="#000000" stroke-linecap="square"></path>
        <path d="M147.490196,311.5 L418.56641,311.5" id="Line" stroke="#000000" stroke-linecap="square"></path>
        <path d="M351.5,290.5 L351.5,283.5" id="Line-2" stroke="#000000" stroke-linecap="square"></path>
        <path d="M418.5,310.5 L418.5,303.5" id="Line-2" stroke="#000000" stroke-linecap="square"></path>
        <path d="M147.5,310.5 L147.5,303.5" id="Line-2" stroke="#000000" stroke-linecap="square"></path>
        <path d="M215.5,290.5 L215.5,283.5" id="Line-2" stroke="#000000" stroke-linecap="square"></path>
    </g>
</svg>