<?xml version="1.0" encoding="UTF-8"?>
<svg width="337px" height="257px" viewBox="0 0 337 257" version="1.1" xmlns="http://www.w3.org/2000/svg" xmlns:xlink="http://www.w3.org/1999/xlink">
    <!-- Generator: Sketch 49.3 (51167) - http://www.bohemiancoding.com/sketch -->
    <title>zero-correlation</title>
    <desc>Created with Sketch.</desc>
    <defs></defs>
    <g id="Page-1" stroke="none" stroke-width="1" fill="none" fill-rule="evenodd">
        <g id="Axis" transform="translate(12.000000, 3.000000)" stroke="#000000" stroke-linecap="square" stroke-width="2">
            <path d="M18.5,243.559493 L18.5,0.995362007" id="Line"></path>
            <path id="Line-decoration-1" d="M21.5,11.795362 L18.5,0.995362007 L15.5,11.795362"></path>
            <path d="M0.5,226.5 L320.576553,226.5" id="Line-2"></path>
            <path id="Line-2-decoration-1" d="M309.776553,229.5 L320.576553,226.5 L309.776553,223.5"></path>
        </g>
        <g id="Data-points" transform="translate(197.000000, 119.500000) scale(-1, 1) translate(-197.000000, -119.500000) translate(68.000000, 34.000000)" fill="#000000">
            <circle id="Oval" cx="30" cy="167" r="4"></circle>
            <circle id="Oval" cx="114" cy="93" r="4"></circle>
            <circle id="Oval" cx="250" cy="79" r="4"></circle>
            <circle id="Oval" cx="34" cy="20" r="4"></circle>
            <circle id="Oval" cx="143" cy="4" r="4"></circle>
            <circle id="Oval" cx="243" cy="155" r="4"></circle>
            <circle id="Oval" cx="172" cy="75" r="4"></circle>
            <circle id="Oval" cx="168" cy="155" r="4"></circle>
            <circle id="Oval" cx="61" cy="101" r="4"></circle>
            <circle id="Oval" cx="4" cy="75" r="4"></circle>
            <circle id="Oval" cx="254" cy="20" r="4"></circle>
        </g>
        <g id="Labels" transform="translate(0.000000, 8.000000)" fill="#000000" font-family="Helvetica" font-size="17" font-weight="normal">
            <text id="A">
                <tspan x="190.330566" y="245">A</tspan>
            </text>
            <text id="B">
                <tspan x="0.330566406" y="113">B</tspan>
            </text>
            <text id="[Zero-correlation]">
                <tspan x="94.7519531" y="16">[Zero correlation]</tspan>
            </text>
        </g>
    </g>
</svg>